<?xml version="1.0" encoding="utf-8"?>
<svg xmlns="http://www.w3.org/2000/svg" viewBox="0 0 30 30" fill="#ffffff"><path d="M 6 4 C 4.895 4 4 4.895 4 6 L 4 9 C 4 9.552 4.448 10 5 10 L 25 10 C 25.552 10 26 9.552 26 9 L 26 6 C 26 4.895 25.105 4 24 4 L 6 4 z M 5 12 C 4.448 12 4 12.448 4 13 L 4 17 C 4 17.552 4.448 18 5 18 L 25 18 C 25.552 18 26 17.552 26 17 L 26 13 C 26 12.448 25.552 12 25 12 L 5 12 z M 5 20 C 4.448 20 4 20.448 4 21 L 4 24 C 4 25.105 4.895 26 6 26 L 14.185547 26 C 13.940547 25.307 13.946516 24.535516 14.228516 23.853516 C 14.381516 23.485516 14.600906 23.156906 14.878906 22.878906 L 17.757812 20 L 5 20 z M 21 20 C 20.74425 20 20.488469 20.097469 20.292969 20.292969 L 16.294922 24.292969 C 16.201922 24.385969 16.127172 24.494187 16.076172 24.617188 C 15.975172 24.861187 15.975172 25.138813 16.076172 25.382812 C 16.127172 25.505813 16.201922 25.615031 16.294922 25.707031 L 20.292969 29.707031 C 20.487969 29.902031 20.744 30 21 30 C 21.256 30 21.512031 29.902031 21.707031 29.707031 C 22.098031 29.316031 22.098031 28.683969 21.707031 28.292969 L 19.414062 26 L 29 26 C 29.553 26 30 25.552 30 25 C 30 24.448 29.553 24 29 24 L 19.414062 24 L 21.707031 21.707031 C 22.098031 21.316031 22.098031 20.683969 21.707031 20.292969 C 21.511531 20.097469 21.25575 20 21 20 z" fill="#ffffff"/></svg>
