<?xml version="1.0" encoding="utf-8"?>
<svg xmlns="http://www.w3.org/2000/svg" viewBox="0 0 30 30" fill="#ffffff"><path d="M 6 4 C 4.895 4 4 4.895 4 6 L 4 9 C 4 9.552 4.448 10 5 10 L 25 10 C 25.552 10 26 9.552 26 9 L 26 6 C 26 4.895 25.105 4 24 4 L 6 4 z M 5 12 C 4.448 12 4 12.448 4 13 L 4 17 C 4 17.552 4.448 18 5 18 L 15.517578 18 C 17.132578 15.589 19.88 14 23 14 C 24.054 14 25.06 14.190437 26 14.523438 L 26 13 C 26 12.448 25.552 12 25 12 L 5 12 z M 23 16 C 19.134 16 16 19.134 16 23 C 16 26.866 19.134 30 23 30 C 26.866 30 30 26.866 30 23 C 30 19.134 26.866 16 23 16 z M 23 19 C 23.552 19 24 19.447 24 20 L 24 22 L 26 22 C 26.552 22 27 22.447 27 23 C 27 23.553 26.552 24 26 24 L 24 24 L 24 26 C 24 26.553 23.552 27 23 27 C 22.448 27 22 26.553 22 26 L 22 24 L 20 24 C 19.448 24 19 23.553 19 23 C 19 22.447 19.448 22 20 22 L 22 22 L 22 20 C 22 19.447 22.448 19 23 19 z M 5 20 C 4.448 20 4 20.448 4 21 L 4 24 C 4 25.105 4.895 26 6 26 L 14.523438 26 C 14.190437 25.06 14 24.054 14 23 C 14 21.946 14.190437 20.94 14.523438 20 L 5 20 z" fill="#ffffff"/></svg>
